<svg width="250" height="35" viewBox="0 0 250 35" fill="none" xmlns="http://www.w3.org/2000/svg">
<path d="M46.976 5.424C46.7947 4.44267 46.0747 3.952 44.816 3.952C44.144 3.952 43.6267 4.10133 43.264 4.4C42.9013 4.688 42.72 5.04 42.72 5.456C42.72 5.86133 42.832 6.17067 43.056 6.384C43.28 6.59733 43.6427 6.784 44.144 6.944L46.24 7.664C46.9547 7.90933 47.52 8.24533 47.936 8.672C48.3627 9.09867 48.576 9.70133 48.576 10.48C48.576 11.248 48.2453 11.8987 47.584 12.432C46.9227 12.9547 46.0373 13.216 44.928 13.216C43.8187 13.216 42.9067 12.9387 42.192 12.384C41.488 11.8187 41.1253 11.0293 41.104 10.016H42.336C42.336 10.6773 42.5653 11.184 43.024 11.536C43.4933 11.888 44.0907 12.064 44.816 12.064C45.552 12.064 46.1333 11.904 46.56 11.584C46.9867 11.2533 47.2 10.8693 47.2 10.432C47.2 9.984 47.0667 9.632 46.8 9.376C46.544 9.12 46.16 8.90667 45.648 8.736L43.872 8.08C43.04 7.80267 42.4107 7.472 41.984 7.088C41.5573 6.704 41.344 6.144 41.344 5.408C41.344 4.66133 41.6427 4.04267 42.24 3.552C42.8373 3.05067 43.6747 2.8 44.752 2.8C45.8293 2.8 46.6507 3.04 47.216 3.52C47.792 3.98933 48.1227 4.624 48.208 5.424H46.976Z" fill="#BEBEBE"/>
<path d="M53.7355 5.2C54.8022 5.2 55.6608 5.54667 56.3115 6.24C56.9728 6.93333 57.3035 7.92533 57.3035 9.216C57.3035 10.496 56.9728 11.4827 56.3115 12.176C55.6608 12.8693 54.8022 13.216 53.7355 13.216C52.6688 13.216 51.8048 12.8693 51.1435 12.176C50.4928 11.4827 50.1675 10.496 50.1675 9.216C50.1675 7.92533 50.4928 6.93333 51.1435 6.24C51.8048 5.54667 52.6688 5.2 53.7355 5.2ZM56.0235 9.216C56.0235 8.29867 55.8315 7.584 55.4475 7.072C55.0635 6.54933 54.4982 6.288 53.7515 6.288C53.0155 6.288 52.4502 6.54933 52.0555 7.072C51.6608 7.584 51.4635 8.29867 51.4635 9.216C51.4635 10.1227 51.6502 10.8373 52.0235 11.36C52.3968 11.872 52.9515 12.128 53.6875 12.128C54.4342 12.128 55.0102 11.872 55.4155 11.36C55.8208 10.8373 56.0235 10.1227 56.0235 9.216Z" fill="#BEBEBE"/>
<path d="M64.5979 11.52C64.0752 12.6293 63.2272 13.184 62.0539 13.184C61.1899 13.184 60.4912 12.944 59.9579 12.464C59.4352 11.984 59.1739 11.2427 59.1739 10.24V5.376H60.4379V10.144C60.4379 11.4347 61.0352 12.08 62.2299 12.08C62.9232 12.08 63.4832 11.8133 63.9099 11.28C64.3472 10.7467 64.5765 10.064 64.5979 9.232V5.376H65.8619V13.04H64.5979V11.52Z" fill="#BEBEBE"/>
<path d="M72.781 12.816C71.8637 13.2427 71.0263 13.3333 70.269 13.088C69.725 12.9173 69.341 12.56 69.117 12.016C68.9997 11.7493 68.941 11.4293 68.941 11.056V6.352H67.709V5.392H68.941V3.264H70.189V5.392H72.589V6.352H70.189V11.04C70.189 11.8187 70.5517 12.208 71.277 12.208C71.6717 12.208 72.1143 12.112 72.605 11.92L72.781 12.816Z" fill="#BEBEBE"/>
<path d="M75.7406 6.8C76.2526 5.73333 77.1006 5.2 78.2846 5.2C79.1913 5.2 79.8953 5.49867 80.3966 6.096C80.9086 6.69333 81.1646 7.50933 81.1646 8.544V13.04H79.9166V8.544C79.9166 7.808 79.7406 7.25333 79.3886 6.88C79.0473 6.50667 78.5513 6.32 77.9006 6.32C77.25 6.32 76.7273 6.59733 76.3326 7.152C75.938 7.696 75.7406 8.45333 75.7406 9.424V13.04H74.4766V2.144H75.7406V6.8Z" fill="#BEBEBE"/>
<path d="M89.5614 2.976H91.0974L94.4734 13.04H93.1614L92.2974 10.48H88.2974L87.4334 13.04H86.1054L89.5614 2.976ZM88.6334 9.488H91.9774L90.3134 4.528L88.6334 9.488Z" fill="#BEBEBE"/>
<path d="M99.713 3.216C99.361 3.07733 99.0837 3.008 98.881 3.008C98.5077 3.008 98.2143 3.09867 98.001 3.28C97.7877 3.46133 97.681 3.78133 97.681 4.24V5.392H99.265V6.256H97.681V13.04H96.433V6.256H95.169V5.392H96.433V4.224C96.433 3.46667 96.641 2.912 97.057 2.56C97.473 2.19733 97.953 2.016 98.497 2.016C99.041 2.016 99.521 2.08533 99.937 2.224L99.713 3.216Z" fill="#BEBEBE"/>
<path d="M104.285 6.464C103.08 6.464 102.456 7.41333 102.413 9.312V13.04H101.149V5.376H102.413V6.848C102.797 5.78133 103.475 5.248 104.445 5.248C104.755 5.248 105.048 5.296 105.325 5.392L105.261 6.624C104.941 6.51733 104.616 6.464 104.285 6.464Z" fill="#BEBEBE"/>
<path d="M107.019 5.376H108.283V13.04H107.019V5.376ZM107.643 3.584C107.387 3.584 107.184 3.51467 107.035 3.376C106.896 3.22667 106.827 3.03467 106.827 2.8C106.827 2.55467 106.896 2.36267 107.035 2.224C107.184 2.07467 107.387 2 107.643 2C107.899 2 108.102 2.07467 108.251 2.224C108.411 2.36267 108.491 2.55467 108.491 2.8C108.491 3.03467 108.411 3.22667 108.251 3.376C108.102 3.51467 107.899 3.584 107.643 3.584Z" fill="#BEBEBE"/>
<path d="M113.944 5.2C114.851 5.2 115.571 5.43467 116.104 5.904C116.638 6.36267 116.984 6.93867 117.144 7.632L115.864 7.744C115.726 7.296 115.502 6.94933 115.192 6.704C114.883 6.448 114.542 6.32 114.168 6.32C113.486 6.32 112.931 6.576 112.504 7.088C112.088 7.6 111.88 8.29867 111.88 9.184C111.88 10.0587 112.083 10.7627 112.488 11.296C112.904 11.8293 113.416 12.096 114.024 12.096C114.643 12.096 115.102 11.9573 115.4 11.68C115.71 11.392 115.864 10.9867 115.864 10.464H117.16C117.16 11.2853 116.872 11.952 116.296 12.464C115.731 12.9653 114.99 13.216 114.072 13.216C113.102 13.216 112.275 12.848 111.592 12.112C110.92 11.376 110.584 10.4 110.584 9.184C110.584 7.95733 110.92 6.98667 111.592 6.272C112.264 5.55733 113.048 5.2 113.944 5.2Z" fill="#BEBEBE"/>
<path d="M124.051 8.08C124.051 7.38667 123.907 6.89067 123.619 6.592C123.331 6.29333 122.909 6.144 122.355 6.144C121.811 6.144 121.368 6.256 121.027 6.48C120.696 6.69333 120.531 7.03467 120.531 7.504H119.139C119.139 6.33067 119.768 5.60533 121.027 5.328C121.411 5.24267 121.827 5.2 122.275 5.2C123.224 5.2 123.965 5.44 124.499 5.92C125.032 6.4 125.299 7.13067 125.299 8.112V13.04H124.211L124.083 11.76C123.613 12.7307 122.765 13.216 121.539 13.216C120.717 13.216 120.056 12.9867 119.555 12.528C119.064 12.0693 118.819 11.4987 118.819 10.816C118.819 10.1333 119.091 9.6 119.635 9.216C120.189 8.832 120.877 8.64 121.699 8.64C122.52 8.64 123.304 8.77867 124.051 9.056V8.08ZM124.051 9.856C123.293 9.64267 122.632 9.536 122.067 9.536C121.501 9.536 121.043 9.63733 120.691 9.84C120.339 10.0427 120.163 10.3627 120.163 10.8C120.163 11.76 120.707 12.24 121.795 12.24C122.413 12.24 122.941 12.0213 123.379 11.584C123.827 11.136 124.051 10.56 124.051 9.856Z" fill="#BEBEBE"/>
<path d="M129.164 6.864C129.665 5.75467 130.524 5.2 131.74 5.2C132.647 5.2 133.351 5.49867 133.852 6.096C134.364 6.69333 134.62 7.50933 134.62 8.544V13.04H133.372V8.544C133.372 7.808 133.196 7.25333 132.844 6.88C132.503 6.50667 132.012 6.32 131.372 6.32C130.732 6.32 130.215 6.58133 129.82 7.104C129.425 7.62667 129.217 8.352 129.196 9.28V13.04H127.932V5.392H129.02L129.164 6.864Z" fill="#BEBEBE"/>
<path d="M42.2947 31.04C42.1747 31.04 42.0727 30.998 41.9887 30.914C41.9047 30.83 41.8627 30.728 41.8627 30.608V18.89C41.8627 18.758 41.8987 18.65 41.9707 18.566C42.0547 18.482 42.1627 18.44 42.2947 18.44H43.6807C43.8247 18.44 43.9327 18.47 44.0047 18.53C44.0767 18.578 44.1427 18.644 44.2027 18.728L49.3867 26.792V18.89C49.3867 18.758 49.4227 18.65 49.4947 18.566C49.5787 18.482 49.6867 18.44 49.8187 18.44H51.3307C51.4627 18.44 51.5707 18.482 51.6547 18.566C51.7387 18.65 51.7807 18.758 51.7807 18.89V30.59C51.7807 30.722 51.7387 30.83 51.6547 30.914C51.5707 30.998 51.4687 31.04 51.3487 31.04H49.9447C49.7407 31.04 49.5667 30.944 49.4227 30.752L44.2567 22.868V30.608C44.2567 30.74 44.2147 30.848 44.1307 30.932C44.0467 31.004 43.9387 31.04 43.8067 31.04H42.2947Z" fill="#E5E5E5"/>
<path d="M56.7312 31.22C56.1192 31.22 55.5552 31.1 55.0392 30.86C54.5352 30.608 54.1332 30.272 53.8332 29.852C53.5452 29.432 53.4012 28.97 53.4012 28.466C53.4012 27.65 53.7312 26.99 54.3912 26.486C55.0512 25.982 55.9572 25.64 57.1092 25.46L59.5752 25.1V24.722C59.5752 24.194 59.4432 23.798 59.1792 23.534C58.9152 23.27 58.4892 23.138 57.9012 23.138C57.5052 23.138 57.1812 23.216 56.9292 23.372C56.6892 23.516 56.4972 23.66 56.3532 23.804C56.2092 23.96 56.1132 24.062 56.0652 24.11C56.0172 24.254 55.9272 24.326 55.7952 24.326H54.4092C54.3012 24.326 54.2052 24.29 54.1212 24.218C54.0492 24.146 54.0132 24.05 54.0132 23.93C54.0252 23.63 54.1692 23.288 54.4452 22.904C54.7332 22.52 55.1712 22.19 55.7592 21.914C56.3472 21.638 57.0672 21.5 57.9192 21.5C59.3352 21.5 60.3672 21.818 61.0152 22.454C61.6632 23.09 61.9872 23.924 61.9872 24.956V30.608C61.9872 30.728 61.9452 30.83 61.8612 30.914C61.7892 30.998 61.6872 31.04 61.5552 31.04H60.0972C59.9772 31.04 59.8752 30.998 59.7912 30.914C59.7072 30.83 59.6652 30.728 59.6652 30.608V29.906C59.4012 30.29 59.0232 30.608 58.5312 30.86C58.0512 31.1 57.4512 31.22 56.7312 31.22ZM57.3432 29.51C58.0032 29.51 58.5432 29.294 58.9632 28.862C59.3832 28.43 59.5932 27.8 59.5932 26.972V26.594L57.7932 26.882C57.0972 26.99 56.5692 27.164 56.2092 27.404C55.8612 27.644 55.6872 27.938 55.6872 28.286C55.6872 28.67 55.8492 28.97 56.1732 29.186C56.4972 29.402 56.8872 29.51 57.3432 29.51Z" fill="#E5E5E5"/>
<path d="M68.0785 31.04C66.9865 31.04 66.1645 30.758 65.6125 30.194C65.0725 29.618 64.8025 28.778 64.8025 27.674V23.588H63.3805C63.2605 23.588 63.1585 23.546 63.0745 23.462C62.9905 23.366 62.9485 23.258 62.9485 23.138V22.112C62.9485 21.992 62.9905 21.89 63.0745 21.806C63.1585 21.722 63.2605 21.68 63.3805 21.68H64.8025V18.692C64.8025 18.56 64.8445 18.458 64.9285 18.386C65.0125 18.302 65.1145 18.26 65.2345 18.26H66.6925C66.8245 18.26 66.9265 18.302 66.9985 18.386C67.0825 18.458 67.1245 18.56 67.1245 18.692V21.68H69.3745C69.5065 21.68 69.6085 21.722 69.6805 21.806C69.7645 21.878 69.8065 21.98 69.8065 22.112V23.138C69.8065 23.27 69.7645 23.378 69.6805 23.462C69.5965 23.546 69.4945 23.588 69.3745 23.588H67.1245V27.494C67.1245 28.01 67.2145 28.4 67.3945 28.664C67.5745 28.928 67.8745 29.06 68.2945 29.06H69.5365C69.6565 29.06 69.7585 29.102 69.8425 29.186C69.9265 29.27 69.9685 29.372 69.9685 29.492V30.608C69.9685 30.728 69.9265 30.83 69.8425 30.914C69.7705 30.998 69.6685 31.04 69.5365 31.04H68.0785Z" fill="#E5E5E5"/>
<path d="M71.5653 20.132C71.4453 20.132 71.3433 20.09 71.2593 20.006C71.1753 19.922 71.1333 19.82 71.1333 19.7V18.404C71.1333 18.284 71.1753 18.182 71.2593 18.098C71.3433 18.014 71.4453 17.972 71.5653 17.972H73.2033C73.3233 17.972 73.4253 18.014 73.5093 18.098C73.6053 18.182 73.6533 18.284 73.6533 18.404V19.7C73.6533 19.82 73.6113 19.922 73.5273 20.006C73.4433 20.09 73.3353 20.132 73.2033 20.132H71.5653ZM71.6373 31.04C71.5173 31.04 71.4153 30.998 71.3313 30.914C71.2473 30.83 71.2053 30.728 71.2053 30.608V22.112C71.2053 21.992 71.2473 21.89 71.3313 21.806C71.4153 21.722 71.5173 21.68 71.6373 21.68H73.1313C73.2633 21.68 73.3653 21.722 73.4373 21.806C73.5213 21.878 73.5633 21.98 73.5633 22.112V30.608C73.5633 30.728 73.5213 30.83 73.4373 30.914C73.3653 30.998 73.2633 31.04 73.1313 31.04H71.6373Z" fill="#E5E5E5"/>
<path d="M79.7314 31.22C78.3274 31.22 77.2414 30.86 76.4734 30.14C75.7054 29.408 75.2914 28.412 75.2314 27.152L75.2134 26.36L75.2314 25.568C75.2914 24.32 75.7114 23.33 76.4914 22.598C77.2714 21.866 78.3514 21.5 79.7314 21.5C81.1114 21.5 82.1914 21.866 82.9714 22.598C83.7514 23.33 84.1714 24.32 84.2314 25.568C84.2434 25.712 84.2494 25.976 84.2494 26.36C84.2494 26.744 84.2434 27.008 84.2314 27.152C84.1714 28.412 83.7574 29.408 82.9894 30.14C82.2214 30.86 81.1354 31.22 79.7314 31.22ZM79.7314 29.438C80.3674 29.438 80.8594 29.24 81.2074 28.844C81.5554 28.436 81.7474 27.842 81.7834 27.062C81.7954 26.942 81.8014 26.708 81.8014 26.36C81.8014 26.012 81.7954 25.778 81.7834 25.658C81.7474 24.878 81.5554 24.29 81.2074 23.894C80.8594 23.486 80.3674 23.282 79.7314 23.282C79.0954 23.282 78.6034 23.486 78.2554 23.894C77.9074 24.29 77.7154 24.878 77.6794 25.658L77.6614 26.36L77.6794 27.062C77.7154 27.842 77.9074 28.436 78.2554 28.844C78.6034 29.24 79.0954 29.438 79.7314 29.438Z" fill="#E5E5E5"/>
<path d="M86.3158 31.04C86.1958 31.04 86.0938 30.998 86.0098 30.914C85.9258 30.83 85.8838 30.728 85.8838 30.608V22.112C85.8838 21.992 85.9258 21.89 86.0098 21.806C86.0938 21.722 86.1958 21.68 86.3158 21.68H87.7918C87.9118 21.68 88.0138 21.722 88.0978 21.806C88.1818 21.89 88.2238 21.992 88.2238 22.112V22.85C88.9318 21.95 89.9338 21.5 91.2298 21.5C92.3338 21.5 93.2098 21.866 93.8578 22.598C94.5058 23.318 94.8298 24.302 94.8298 25.55V30.608C94.8298 30.728 94.7878 30.83 94.7038 30.914C94.6318 30.998 94.5298 31.04 94.3978 31.04H92.8138C92.6938 31.04 92.5918 30.998 92.5078 30.914C92.4238 30.83 92.3818 30.728 92.3818 30.608V25.658C92.3818 24.95 92.2078 24.404 91.8598 24.02C91.5238 23.624 91.0318 23.426 90.3838 23.426C89.7478 23.426 89.2438 23.624 88.8718 24.02C88.5118 24.416 88.3318 24.962 88.3318 25.658V30.608C88.3318 30.728 88.2898 30.83 88.2058 30.914C88.1338 30.998 88.0318 31.04 87.8998 31.04H86.3158Z" fill="#E5E5E5"/>
<path d="M99.4742 31.22C98.8622 31.22 98.2982 31.1 97.7822 30.86C97.2782 30.608 96.8762 30.272 96.5762 29.852C96.2882 29.432 96.1442 28.97 96.1442 28.466C96.1442 27.65 96.4742 26.99 97.1342 26.486C97.7942 25.982 98.7002 25.64 99.8522 25.46L102.318 25.1V24.722C102.318 24.194 102.186 23.798 101.922 23.534C101.658 23.27 101.232 23.138 100.644 23.138C100.248 23.138 99.9242 23.216 99.6722 23.372C99.4322 23.516 99.2402 23.66 99.0962 23.804C98.9522 23.96 98.8562 24.062 98.8082 24.11C98.7602 24.254 98.6702 24.326 98.5382 24.326H97.1522C97.0442 24.326 96.9482 24.29 96.8642 24.218C96.7922 24.146 96.7562 24.05 96.7562 23.93C96.7682 23.63 96.9122 23.288 97.1882 22.904C97.4762 22.52 97.9142 22.19 98.5022 21.914C99.0902 21.638 99.8102 21.5 100.662 21.5C102.078 21.5 103.11 21.818 103.758 22.454C104.406 23.09 104.73 23.924 104.73 24.956V30.608C104.73 30.728 104.688 30.83 104.604 30.914C104.532 30.998 104.43 31.04 104.298 31.04H102.84C102.72 31.04 102.618 30.998 102.534 30.914C102.45 30.83 102.408 30.728 102.408 30.608V29.906C102.144 30.29 101.766 30.608 101.274 30.86C100.794 31.1 100.194 31.22 99.4742 31.22ZM100.086 29.51C100.746 29.51 101.286 29.294 101.706 28.862C102.126 28.43 102.336 27.8 102.336 26.972V26.594L100.536 26.882C99.8402 26.99 99.3122 27.164 98.9522 27.404C98.6042 27.644 98.4302 27.938 98.4302 28.286C98.4302 28.67 98.5922 28.97 98.9162 29.186C99.2402 29.402 99.6302 29.51 100.086 29.51Z" fill="#E5E5E5"/>
<path d="M107.129 31.04C107.009 31.04 106.907 30.998 106.823 30.914C106.739 30.83 106.697 30.728 106.697 30.608V18.692C106.697 18.56 106.739 18.458 106.823 18.386C106.907 18.302 107.009 18.26 107.129 18.26H108.623C108.755 18.26 108.857 18.302 108.929 18.386C109.013 18.458 109.055 18.56 109.055 18.692V30.608C109.055 30.728 109.013 30.83 108.929 30.914C108.857 30.998 108.755 31.04 108.623 31.04H107.129Z" fill="#E5E5E5"/>
<path d="M115.484 31.04C115.364 31.04 115.262 30.998 115.178 30.914C115.094 30.83 115.052 30.728 115.052 30.608V18.872C115.052 18.74 115.094 18.638 115.178 18.566C115.262 18.482 115.364 18.44 115.484 18.44H117.158C117.29 18.44 117.392 18.482 117.464 18.566C117.548 18.638 117.59 18.74 117.59 18.872V28.898H123.296C123.428 28.898 123.536 28.94 123.62 29.024C123.704 29.108 123.746 29.216 123.746 29.348V30.608C123.746 30.74 123.704 30.848 123.62 30.932C123.536 31.004 123.428 31.04 123.296 31.04H115.484Z" fill="#E5E5E5"/>
<path d="M128.917 31.22C127.513 31.22 126.427 30.86 125.659 30.14C124.891 29.408 124.477 28.412 124.417 27.152L124.399 26.36L124.417 25.568C124.477 24.32 124.897 23.33 125.677 22.598C126.457 21.866 127.537 21.5 128.917 21.5C130.297 21.5 131.377 21.866 132.157 22.598C132.937 23.33 133.357 24.32 133.417 25.568C133.429 25.712 133.435 25.976 133.435 26.36C133.435 26.744 133.429 27.008 133.417 27.152C133.357 28.412 132.943 29.408 132.175 30.14C131.407 30.86 130.321 31.22 128.917 31.22ZM128.917 29.438C129.553 29.438 130.045 29.24 130.393 28.844C130.741 28.436 130.933 27.842 130.969 27.062C130.981 26.942 130.987 26.708 130.987 26.36C130.987 26.012 130.981 25.778 130.969 25.658C130.933 24.878 130.741 24.29 130.393 23.894C130.045 23.486 129.553 23.282 128.917 23.282C128.281 23.282 127.789 23.486 127.441 23.894C127.093 24.29 126.901 24.878 126.865 25.658L126.847 26.36L126.865 27.062C126.901 27.842 127.093 28.436 127.441 28.844C127.789 29.24 128.281 29.438 128.917 29.438Z" fill="#E5E5E5"/>
<path d="M139.229 31.04C138.137 31.04 137.315 30.758 136.763 30.194C136.223 29.618 135.953 28.778 135.953 27.674V23.588H134.531C134.411 23.588 134.309 23.546 134.225 23.462C134.141 23.366 134.099 23.258 134.099 23.138V22.112C134.099 21.992 134.141 21.89 134.225 21.806C134.309 21.722 134.411 21.68 134.531 21.68H135.953V18.692C135.953 18.56 135.995 18.458 136.079 18.386C136.163 18.302 136.265 18.26 136.385 18.26H137.843C137.975 18.26 138.077 18.302 138.149 18.386C138.233 18.458 138.275 18.56 138.275 18.692V21.68H140.525C140.657 21.68 140.759 21.722 140.831 21.806C140.915 21.878 140.957 21.98 140.957 22.112V23.138C140.957 23.27 140.915 23.378 140.831 23.462C140.747 23.546 140.645 23.588 140.525 23.588H138.275V27.494C138.275 28.01 138.365 28.4 138.545 28.664C138.725 28.928 139.025 29.06 139.445 29.06H140.687C140.807 29.06 140.909 29.102 140.993 29.186C141.077 29.27 141.119 29.372 141.119 29.492V30.608C141.119 30.728 141.077 30.83 140.993 30.914C140.921 30.998 140.819 31.04 140.687 31.04H139.229Z" fill="#E5E5E5"/>
<path d="M146.586 31.04C145.494 31.04 144.672 30.758 144.12 30.194C143.58 29.618 143.31 28.778 143.31 27.674V23.588H141.888C141.768 23.588 141.666 23.546 141.582 23.462C141.498 23.366 141.456 23.258 141.456 23.138V22.112C141.456 21.992 141.498 21.89 141.582 21.806C141.666 21.722 141.768 21.68 141.888 21.68H143.31V18.692C143.31 18.56 143.352 18.458 143.436 18.386C143.52 18.302 143.622 18.26 143.742 18.26H145.2C145.332 18.26 145.434 18.302 145.506 18.386C145.59 18.458 145.632 18.56 145.632 18.692V21.68H147.882C148.014 21.68 148.116 21.722 148.188 21.806C148.272 21.878 148.314 21.98 148.314 22.112V23.138C148.314 23.27 148.272 23.378 148.188 23.462C148.104 23.546 148.002 23.588 147.882 23.588H145.632V27.494C145.632 28.01 145.722 28.4 145.902 28.664C146.082 28.928 146.382 29.06 146.802 29.06H148.044C148.164 29.06 148.266 29.102 148.35 29.186C148.434 29.27 148.476 29.372 148.476 29.492V30.608C148.476 30.728 148.434 30.83 148.35 30.914C148.278 30.998 148.176 31.04 148.044 31.04H146.586Z" fill="#E5E5E5"/>
<path d="M153.745 31.22C152.413 31.22 151.351 30.836 150.559 30.068C149.779 29.288 149.365 28.196 149.317 26.792L149.299 26.342L149.317 25.892C149.377 24.524 149.797 23.45 150.577 22.67C151.369 21.89 152.425 21.5 153.745 21.5C155.161 21.5 156.253 21.932 157.021 22.796C157.801 23.66 158.191 24.812 158.191 26.252V26.63C158.191 26.75 158.149 26.852 158.065 26.936C157.981 27.02 157.873 27.062 157.741 27.062H151.765V27.206C151.789 27.866 151.969 28.424 152.305 28.88C152.653 29.324 153.127 29.546 153.727 29.546C154.435 29.546 155.005 29.27 155.437 28.718C155.545 28.586 155.629 28.502 155.689 28.466C155.761 28.43 155.863 28.412 155.995 28.412H157.543C157.651 28.412 157.741 28.448 157.813 28.52C157.897 28.58 157.939 28.658 157.939 28.754C157.939 29.042 157.765 29.384 157.417 29.78C157.081 30.164 156.595 30.5 155.959 30.788C155.323 31.076 154.585 31.22 153.745 31.22ZM155.743 25.55V25.496C155.743 24.788 155.563 24.218 155.203 23.786C154.855 23.354 154.369 23.138 153.745 23.138C153.121 23.138 152.635 23.354 152.287 23.786C151.939 24.218 151.765 24.788 151.765 25.496V25.55H155.743Z" fill="#E5E5E5"/>
<path d="M160.173 31.04C160.053 31.04 159.951 30.998 159.867 30.914C159.783 30.83 159.741 30.728 159.741 30.608V22.13C159.741 22.01 159.783 21.908 159.867 21.824C159.951 21.728 160.053 21.68 160.173 21.68H161.631C161.763 21.68 161.871 21.722 161.955 21.806C162.039 21.89 162.081 21.998 162.081 22.13V22.868C162.369 22.484 162.729 22.19 163.161 21.986C163.605 21.782 164.109 21.68 164.673 21.68H165.411C165.543 21.68 165.645 21.722 165.717 21.806C165.801 21.878 165.843 21.98 165.843 22.112V23.408C165.843 23.528 165.801 23.63 165.717 23.714C165.645 23.798 165.543 23.84 165.411 23.84H164.007C163.443 23.84 162.999 24.002 162.675 24.326C162.351 24.65 162.189 25.094 162.189 25.658V30.608C162.189 30.728 162.147 30.83 162.063 30.914C161.979 30.998 161.871 31.04 161.739 31.04H160.173Z" fill="#E5E5E5"/>
<path d="M168.579 34.46C168.483 34.46 168.399 34.424 168.327 34.352C168.255 34.28 168.219 34.196 168.219 34.1C168.219 33.992 168.243 33.896 168.291 33.812L169.695 30.482L166.239 22.328C166.191 22.22 166.167 22.136 166.167 22.076C166.179 21.968 166.221 21.878 166.293 21.806C166.365 21.722 166.455 21.68 166.563 21.68H168.021C168.249 21.68 168.411 21.794 168.507 22.022L170.901 27.908L173.367 22.022C173.463 21.794 173.625 21.68 173.853 21.68H175.293C175.389 21.68 175.473 21.716 175.545 21.788C175.629 21.86 175.671 21.944 175.671 22.04C175.671 22.124 175.647 22.22 175.599 22.328L170.505 34.118C170.397 34.346 170.229 34.46 170.001 34.46H168.579Z" fill="#E5E5E5"/>
<path d="M180.79 31.04C180.67 31.04 180.568 30.998 180.484 30.914C180.4 30.83 180.358 30.728 180.358 30.608V18.89C180.358 18.758 180.394 18.65 180.466 18.566C180.55 18.482 180.658 18.44 180.79 18.44H188.71C188.842 18.44 188.95 18.482 189.034 18.566C189.118 18.65 189.16 18.758 189.16 18.89V20.078C189.16 20.21 189.118 20.318 189.034 20.402C188.95 20.474 188.842 20.51 188.71 20.51H182.788V23.696H188.314C188.446 23.696 188.554 23.738 188.638 23.822C188.722 23.894 188.764 23.996 188.764 24.128V25.244C188.764 25.376 188.722 25.484 188.638 25.568C188.554 25.64 188.446 25.676 188.314 25.676H182.788V28.97H188.854C188.986 28.97 189.094 29.012 189.178 29.096C189.262 29.18 189.304 29.288 189.304 29.42V30.608C189.304 30.74 189.262 30.848 189.178 30.932C189.094 31.004 188.986 31.04 188.854 31.04H180.79Z" fill="#E5E5E5"/>
<path d="M190.583 31.04C190.475 31.04 190.379 31.004 190.295 30.932C190.223 30.848 190.187 30.752 190.187 30.644C190.187 30.536 190.229 30.434 190.313 30.338L193.373 26.234L190.529 22.382C190.457 22.286 190.421 22.184 190.421 22.076C190.421 21.968 190.457 21.878 190.529 21.806C190.613 21.722 190.709 21.68 190.817 21.68H192.383C192.503 21.68 192.593 21.71 192.653 21.77C192.725 21.818 192.797 21.89 192.869 21.986L194.903 24.686L196.937 21.986C196.949 21.974 196.997 21.92 197.081 21.824C197.153 21.728 197.267 21.68 197.423 21.68H198.917C199.025 21.68 199.115 21.722 199.187 21.806C199.271 21.878 199.313 21.962 199.313 22.058C199.313 22.178 199.277 22.286 199.205 22.382L196.325 26.27L199.403 30.338C199.487 30.434 199.529 30.536 199.529 30.644C199.529 30.752 199.487 30.848 199.403 30.932C199.331 31.004 199.241 31.04 199.133 31.04H197.495C197.303 31.04 197.141 30.944 197.009 30.752L194.849 27.89L192.653 30.752C192.521 30.944 192.359 31.04 192.167 31.04H190.583Z" fill="#E5E5E5"/>
<path d="M201.229 34.46C201.109 34.46 201.007 34.418 200.923 34.334C200.839 34.262 200.797 34.16 200.797 34.028V22.112C200.797 21.98 200.839 21.878 200.923 21.806C201.007 21.722 201.109 21.68 201.229 21.68H202.651C202.783 21.68 202.885 21.722 202.957 21.806C203.041 21.878 203.083 21.98 203.083 22.112V22.832C203.755 21.944 204.715 21.5 205.963 21.5C207.175 21.5 208.105 21.884 208.753 22.652C209.401 23.408 209.749 24.434 209.797 25.73C209.809 25.874 209.815 26.084 209.815 26.36C209.815 26.648 209.809 26.864 209.797 27.008C209.749 28.268 209.401 29.288 208.753 30.068C208.105 30.836 207.175 31.22 205.963 31.22C204.751 31.22 203.827 30.794 203.191 29.942V34.028C203.191 34.16 203.149 34.262 203.065 34.334C202.993 34.418 202.891 34.46 202.759 34.46H201.229ZM205.297 29.294C206.593 29.294 207.283 28.496 207.367 26.9C207.379 26.78 207.385 26.6 207.385 26.36C207.385 26.12 207.379 25.94 207.367 25.82C207.283 24.224 206.593 23.426 205.297 23.426C204.601 23.426 204.085 23.648 203.749 24.092C203.413 24.536 203.227 25.082 203.191 25.73L203.173 26.414L203.191 27.116C203.215 27.716 203.401 28.232 203.749 28.664C204.109 29.084 204.625 29.294 205.297 29.294Z" fill="#E5E5E5"/>
<path d="M211.926 31.04C211.806 31.04 211.704 30.998 211.62 30.914C211.536 30.83 211.494 30.728 211.494 30.608V18.692C211.494 18.56 211.536 18.458 211.62 18.386C211.704 18.302 211.806 18.26 211.926 18.26H213.42C213.552 18.26 213.654 18.302 213.726 18.386C213.81 18.458 213.852 18.56 213.852 18.692V30.608C213.852 30.728 213.81 30.83 213.726 30.914C213.654 30.998 213.552 31.04 213.42 31.04H211.926Z" fill="#E5E5E5"/>
<path d="M220.02 31.22C218.616 31.22 217.53 30.86 216.762 30.14C215.994 29.408 215.58 28.412 215.52 27.152L215.502 26.36L215.52 25.568C215.58 24.32 216 23.33 216.78 22.598C217.56 21.866 218.64 21.5 220.02 21.5C221.4 21.5 222.48 21.866 223.26 22.598C224.04 23.33 224.46 24.32 224.52 25.568C224.532 25.712 224.538 25.976 224.538 26.36C224.538 26.744 224.532 27.008 224.52 27.152C224.46 28.412 224.046 29.408 223.278 30.14C222.51 30.86 221.424 31.22 220.02 31.22ZM220.02 29.438C220.656 29.438 221.148 29.24 221.496 28.844C221.844 28.436 222.036 27.842 222.072 27.062C222.084 26.942 222.09 26.708 222.09 26.36C222.09 26.012 222.084 25.778 222.072 25.658C222.036 24.878 221.844 24.29 221.496 23.894C221.148 23.486 220.656 23.282 220.02 23.282C219.384 23.282 218.892 23.486 218.544 23.894C218.196 24.29 218.004 24.878 217.968 25.658L217.95 26.36L217.968 27.062C218.004 27.842 218.196 28.436 218.544 28.844C218.892 29.24 219.384 29.438 220.02 29.438Z" fill="#E5E5E5"/>
<path d="M226.604 31.04C226.484 31.04 226.382 30.998 226.298 30.914C226.214 30.83 226.172 30.728 226.172 30.608V22.13C226.172 22.01 226.214 21.908 226.298 21.824C226.382 21.728 226.484 21.68 226.604 21.68H228.062C228.194 21.68 228.302 21.722 228.386 21.806C228.47 21.89 228.512 21.998 228.512 22.13V22.868C228.8 22.484 229.16 22.19 229.592 21.986C230.036 21.782 230.54 21.68 231.104 21.68H231.842C231.974 21.68 232.076 21.722 232.148 21.806C232.232 21.878 232.274 21.98 232.274 22.112V23.408C232.274 23.528 232.232 23.63 232.148 23.714C232.076 23.798 231.974 23.84 231.842 23.84H230.438C229.874 23.84 229.43 24.002 229.106 24.326C228.782 24.65 228.62 25.094 228.62 25.658V30.608C228.62 30.728 228.578 30.83 228.494 30.914C228.41 30.998 228.302 31.04 228.17 31.04H226.604Z" fill="#E5E5E5"/>
<path d="M237.227 31.22C235.895 31.22 234.833 30.836 234.041 30.068C233.261 29.288 232.847 28.196 232.799 26.792L232.781 26.342L232.799 25.892C232.859 24.524 233.279 23.45 234.059 22.67C234.851 21.89 235.907 21.5 237.227 21.5C238.643 21.5 239.735 21.932 240.503 22.796C241.283 23.66 241.673 24.812 241.673 26.252V26.63C241.673 26.75 241.631 26.852 241.547 26.936C241.463 27.02 241.355 27.062 241.223 27.062H235.247V27.206C235.271 27.866 235.451 28.424 235.787 28.88C236.135 29.324 236.609 29.546 237.209 29.546C237.917 29.546 238.487 29.27 238.919 28.718C239.027 28.586 239.111 28.502 239.171 28.466C239.243 28.43 239.345 28.412 239.477 28.412H241.025C241.133 28.412 241.223 28.448 241.295 28.52C241.379 28.58 241.421 28.658 241.421 28.754C241.421 29.042 241.247 29.384 240.899 29.78C240.563 30.164 240.077 30.5 239.441 30.788C238.805 31.076 238.067 31.22 237.227 31.22ZM239.225 25.55V25.496C239.225 24.788 239.045 24.218 238.685 23.786C238.337 23.354 237.851 23.138 237.227 23.138C236.603 23.138 236.117 23.354 235.769 23.786C235.421 24.218 235.247 24.788 235.247 25.496V25.55H239.225Z" fill="#E5E5E5"/>
<path d="M243.655 31.04C243.535 31.04 243.433 30.998 243.349 30.914C243.265 30.83 243.223 30.728 243.223 30.608V22.13C243.223 22.01 243.265 21.908 243.349 21.824C243.433 21.728 243.535 21.68 243.655 21.68H245.113C245.245 21.68 245.353 21.722 245.437 21.806C245.521 21.89 245.563 21.998 245.563 22.13V22.868C245.851 22.484 246.211 22.19 246.643 21.986C247.087 21.782 247.591 21.68 248.155 21.68H248.893C249.025 21.68 249.127 21.722 249.199 21.806C249.283 21.878 249.325 21.98 249.325 22.112V23.408C249.325 23.528 249.283 23.63 249.199 23.714C249.127 23.798 249.025 23.84 248.893 23.84H247.489C246.925 23.84 246.481 24.002 246.157 24.326C245.833 24.65 245.671 25.094 245.671 25.658V30.608C245.671 30.728 245.629 30.83 245.545 30.914C245.461 30.998 245.353 31.04 245.221 31.04H243.655Z" fill="#E5E5E5"/>
<path d="M34.54 17.27C34.54 26.8079 26.8079 34.54 17.27 34.54C7.73204 34.54 0 26.8079 0 17.27C0 7.73204 7.73204 0 17.27 0C26.8079 0 34.54 7.73204 34.54 17.27Z" fill="#009966"/>
<path d="M30.2225 17.27C30.2225 24.4235 24.4235 30.2225 17.27 30.2225C10.1165 30.2225 4.3175 24.4235 4.3175 17.27C4.3175 10.1165 10.1165 4.3175 17.27 4.3175C24.4235 4.3175 30.2225 10.1165 30.2225 17.27Z" fill="#F9D551"/>
<path d="M25.905 17.27C25.905 22.039 22.039 25.905 17.27 25.905C12.501 25.905 8.63499 22.039 8.63499 17.27C8.63499 12.501 12.501 8.63501 17.27 8.63501C22.039 8.63501 25.905 12.501 25.905 17.27Z" fill="#0095C5"/>
<path d="M21.5875 17.27C21.5875 19.6545 19.6545 21.5875 17.27 21.5875C14.8855 21.5875 12.9525 19.6545 12.9525 17.27C12.9525 14.8855 14.8855 12.9525 17.27 12.9525C19.6545 12.9525 21.5875 14.8855 21.5875 17.27Z" fill="#E73A56"/>
<path d="M30.0736 10.8682C30.0736 13.2527 28.1406 15.1857 25.7561 15.1857C23.3716 15.1857 21.4386 13.2527 21.4386 10.8682C21.4386 8.4837 23.3716 6.55069 25.7561 6.55069C28.1406 6.55069 30.0736 8.4837 30.0736 10.8682Z" fill="white"/>
</svg>
